HIERARCHY
ROOT Hips
{
  OFFSET 13.6774 106.653 -34.4427
  CHANNELS 6 Xposition Yposition Zposition Zrotation Xrotation Yrotation
  JOINT ToSpine
  {
    OFFSET -2.69724 7.43032 -0.144315
    CHANNELS 3 Zrotation Xrotation Yrotation
    JOINT Spine
    {
      OFFSET -0.0310711 10.7595 1.96963
      CHANNELS 3 Zrotation Xrotation Yrotation
      JOINT Spine1
      {
        OFFSET 19.9056 3.91189 0.764692
        CHANNELS 3 Zrotation Xrotation Yrotation
        JOINT Neck
        {
          OFFSET 25.9749 7.03908 -0.130764
          CHANNELS 3 Zrotation Xrotation Yrotation
          JOINT Head
          {
            OFFSET 9.52751 0.295786 -0.907742
            CHANNELS 3 Zrotation Xrotation Yrotation
            End Site
            {
              OFFSET 16.4037 0.713936 2.7358
            }
          }
        }
        JOINT LeftShoulder
        {
          OFFSET 17.7449 4.33886 11.7777
          CHANNELS 3 Zrotation Xrotation Yrotation
          JOINT LeftArm
          {
            OFFSET 0.911315 1.27913 9.80584
            CHANNELS 3 Zrotation Xrotation Yrotation
            JOINT LeftForeArm
            {
              OFFSET 28.6126 1.18197 -3.53199
              CHANNELS 3 Zrotation Xrotation Yrotation
              JOINT LeftHand
              {
                OFFSET 27.5088 0.0218783 0.327423
                CHANNELS 3 Zrotation Xrotation Yrotation
                End Site
                {
                  OFFSET 18.6038 -0.000155887 0.382096
                }
              }
            }
          }
        }
        JOINT RightShoulder
        {
          OFFSET 17.1009 2.89543 -12.2328
          CHANNELS 3 Zrotation Xrotation Yrotation
          JOINT RightArm
          {
            OFFSET 1.4228 0.178766 -10.211
            CHANNELS 3 Zrotation Xrotation Yrotation
            JOINT RightForeArm
            {
              OFFSET 28.733 1.87905 2.64907
              CHANNELS 3 Zrotation Xrotation Yrotation
              JOINT RightHand
              {
                OFFSET 27.4588 0.290562 -0.101845
                CHANNELS 3 Zrotation Xrotation Yrotation
                End Site
                {
                  OFFSET 17.8396 -0.255518 -0.000602873
                }
              }
            }
          }
        }
      }
    }
  }
  JOINT LeftUpLeg
  {
    OFFSET -5.61296 -2.22332 -10.2353
    CHANNELS 3 Zrotation Xrotation Yrotation
    JOINT LeftLeg
    {
      OFFSET 2.56703 -44.7417 -7.93097
      CHANNELS 3 Zrotation Xrotation Yrotation
      JOINT LeftFoot
      {
        OFFSET 3.16933 -46.5642 -3.96578
        CHANNELS 3 Zrotation Xrotation Yrotation
        JOINT LeftToeBase
        {
          OFFSET 0.346054 -6.02161 12.8035
          CHANNELS 3 Zrotation Xrotation Yrotation
          End Site
          {
            OFFSET 0.134235 -1.35082 5.13018
          }
        }
      }
    }
  }
  JOINT RightUpLeg
  {
    OFFSET -5.7928 -1.72406 10.6446
    CHANNELS 3 Zrotation Xrotation Yrotation
    JOINT RightLeg
    {
      OFFSET -2.57161 -44.7178 -7.85259
      CHANNELS 3 Zrotation Xrotation Yrotation
      JOINT RightFoot
      {
        OFFSET -3.10148 -46.5936 -4.03391
        CHANNELS 3 Zrotation Xrotation Yrotation
        JOINT RightToeBase
        {
          OFFSET -0.0828122 -6.13587 12.8035
          CHANNELS 3 Zrotation Xrotation Yrotation
          End Site
          {
            OFFSET -0.131328 -1.35082 5.13018
          }
        }
      }
    }
  }
}
MOTION
Frames: 21
Frame Time: 0.03333333333333333
0.0000 93.1000 0.0000 73.3706 -33.5794 -3.1757 -71.2560 0.2699 87.7257 81.8260 71.8673 0.4005 3.6540 22.1040 -1.4593 -113.0664 21.7044 161.4522 178.0779 64.7570 -131.8776 0.8589 -9.9375 -14.7646 -43.4473 25.8907 -124.1994 30.1056 -6.4792 -99.6483 -0.1362 -0.4170 -0.2647 -0.2996 0.3062 -5.2874 -130.9734 5.3722 90.5132 46.7918 -3.4911 85.9474 0.0245 0.5326 -0.1125 -48.1367 18.0081 95.9334 -4.9875 54.6118 -8.1235 1.4019 -21.4496 -1.6813 4.0393 -13.0450 18.2802 -45.1267 -12.0392 79.1806 1.1310 26.5126 0.8563 -2.4322 8.0173 -0.7390 0.2201 -8.4736 1.4947 
0.0000 93.1000 0.0000 71.8640 -34.0930 -3.7403 -71.1861 0.5949 87.5797 85.3586 71.4249 -1.3083 3.6956 21.9378 -2.5725 -112.4783 21.1285 161.7877 178.2663 64.8234 -131.0944 1.1125 -9.4297 -13.5950 -43.8701 25.9058 -125.0908 29.1092 -6.1222 -99.5837 -0.3020 -0.3299 -0.2526 -0.0499 0.7546 -3.7937 -133.2982 2.2656 90.2355 42.9525 -3.3065 85.9279 0.2901 0.4794 0.3058 -49.1538 18.3570 97.0417 -5.1890 54.6355 -8.4311 0.3222 -21.2649 -1.8606 4.0331 -12.9098 19.3078 -44.1467 -12.6780 79.4571 1.0334 27.7360 4.7817 -5.1465 8.9493 0.0130 0.5360 -10.9706 1.7487 
0.0000 93.1000 0.0000 71.7418 -33.8096 -3.7358 -71.1731 0.6618 87.4407 86.3647 71.3209 -1.3452 3.6763 21.9424 -3.4369 -112.2830 20.7723 162.3063 179.0957 65.0186 -132.8806 1.3309 -9.0914 -13.1842 -45.3440 25.7851 -127.2957 28.0879 -6.0188 -98.8154 -0.2424 -0.4774 -0.0080 -0.0335 0.4622 -3.2874 -136.6516 -3.4634 92.5616 34.7868 -2.8438 87.0376 0.1446 0.6707 0.2963 -49.2166 17.7939 97.3771 -4.7259 52.9542 -7.8025 0.1771 -21.3296 -1.7552 3.7506 -12.7343 18.6883 -43.2146 -12.9438 80.5097 1.2555 26.9363 6.7169 -5.7275 9.6008 -0.0396 1.4052 -10.3469 0.1409 
0.0000 93.1000 0.0000 72.0557 -33.7485 -4.4260 -71.2265 0.7473 87.5961 80.5293 71.6518 2.0024 4.0051 21.9923 -2.4675 -112.0722 21.5120 160.6474 178.1294 66.3012 -133.0463 1.2614 -10.5514 -14.9109 -49.0095 24.7140 -130.2963 24.7122 -5.1234 -98.5776 0.1571 -0.3018 0.0834 0.1266 0.5625 -1.8602 -139.8122 -7.5277 92.4647 19.5721 -1.2189 89.6761 0.1239 0.4376 0.1937 -50.0102 17.2755 96.8705 -4.7643 51.5817 -8.6700 -0.6845 -20.9291 -1.9808 4.3635 -13.1325 18.6454 -43.7683 -14.5871 81.1329 0.0528 25.0591 3.8247 -5.5962 10.9069 0.2134 0.1075 -6.1720 1.3845 
0.0000 93.1000 0.0000 71.0467 -32.8968 -5.1975 -71.0844 0.3555 87.6413 78.8186 70.9957 4.4229 4.2431 22.1879 -2.8505 -111.9474 22.8393 159.3761 177.5394 67.7594 -133.4232 0.8606 -11.5381 -15.5674 -51.4752 23.8093 -135.2759 21.5826 -3.8264 -97.6128 -0.2035 0.0106 0.2728 0.0902 1.3930 0.0185 -140.6414 -13.1781 91.0902 2.3467 -0.9740 94.1246 -0.3294 0.0162 -0.0811 -50.0739 16.7886 96.5044 -5.0902 49.7929 -9.1782 -1.2903 -20.1178 -2.0268 4.6199 -14.0288 17.3732 -44.4531 -16.0091 80.3069 0.1807 22.7762 0.8370 -4.9218 13.6674 -0.2941 -0.4029 -0.5999 -1.9297 
0.0000 93.1000 0.0000 70.7360 -31.7225 -5.8340 -71.2433 0.8664 87.7350 75.9726 70.3804 8.0112 5.5825 21.9948 -2.4602 -113.8954 24.9673 158.5177 177.1346 68.7763 -135.6014 1.1668 -12.1232 -16.6781 -54.8610 24.4866 -140.1004 18.7601 -3.2565 -95.9000 0.1689 -0.3278 -0.4798 0.1909 2.9463 4.2510 -137.8817 -17.1122 90.9796 -8.1963 -1.5548 99.0188 0.0805 0.4004 0.0905 -51.1446 16.7182 96.4939 -3.8308 47.6221 -9.9457 -0.9578 -18.7405 -2.0538 4.8195 -13.4605 16.0667 -45.0057 -17.1789 78.6259 0.6035 20.4775 2.0181 -4.0504 15.6707 -0.0348 0.1404 -3.3072 0.9540 
0.0000 93.1000 0.0000 69.7978 -30.8046 -6.3422 -71.3192 -0.0479 87.7179 70.3482 69.9993 12.5171 6.8987 21.2204 -1.3106 -115.9989 26.4626 158.8889 175.8231 69.7057 -136.1608 0.4542 -12.9550 -17.8696 -58.3219 24.2806 -143.5201 14.6222 -2.4829 -95.2035 0.0985 0.0612 -0.1905 -0.4815 4.3292 11.0859 -134.8848 -17.0795 91.7033 -4.9002 -0.5252 102.7983 -0.2419 -0.1240 -0.1580 -52.4111 15.7899 95.7838 -3.7968 44.8593 -8.5085 -2.4887 -16.3873 -1.5711 4.9622 -13.9144 15.3261 -44.4839 -17.3133 77.6546 -0.3002 21.0628 4.2481 -4.9991 16.4380 -0.3860 1.3815 -11.9757 3.6295 
0.0000 93.1000 0.0000 70.2356 -29.7649 -7.3385 -71.2554 0.2665 87.9033 66.0981 69.9168 14.9071 7.3578 20.4999 0.2407 -118.9963 28.9769 158.1521 173.6085 71.2196 -137.7476 0.6110 -13.5992 -18.8595 -60.4824 25.1782 -147.1439 12.9637 -2.2055 -95.4033 0.0054 -0.0815 -0.3163 -0.7592 5.1460 18.3054 -130.9484 -17.2254 93.5000 3.8857 1.1027 106.1664 -0.0556 0.0588 -0.1055 -53.0175 16.4305 95.6956 -3.6425 42.4956 -7.9557 -2.5098 -14.1435 -1.5721 5.2999 -13.8115 14.0926 -44.8157 -16.3525 78.3102 -0.0054 21.8042 3.8633 -5.9178 15.4394 0.1736 1.5930 -16.4713 4.0302 
0.0000 93.1000 0.0000 69.5742 -28.6733 -6.9282 -71.2823 0.7034 87.9060 66.7321 70.2190 14.1989 7.0014 20.0522 1.1103 -122.4946 30.2890 158.3237 173.6398 73.1640 -139.7197 0.8385 -13.7992 -19.1292 -61.1064 27.3001 -150.0558 14.2034 -2.0239 -95.5633 0.3007 -0.0829 -0.2827 -0.8933 5.6350 26.9776 -125.9656 -15.2738 96.4699 10.1153 2.3852 106.3454 0.3350 0.1070 0.2953 -53.6987 17.4245 95.3222 -2.7264 40.7525 -8.0260 -2.9323 -11.0786 -1.6215 5.6826 -14.2481 13.0872 -45.9229 -16.6020 78.2306 0.5111 21.9841 2.9426 -4.7930 12.8264 0.5810 1.7426 -14.2035 3.6712 
0.0000 93.1000 0.0000 69.2776 -28.0233 -6.4350 -71.3774 0.7129 87.8064 68.3424 70.0915 12.9045 6.8545 19.4859 2.0099 -124.5555 31.9228 157.5273 170.6474 74.4934 -139.6288 0.7907 -14.0967 -19.3689 -62.3160 29.3643 -151.9808 15.9420 -1.4776 -96.2019 0.2892 -0.1662 -0.1920 -1.4852 5.9858 34.6959 -123.9998 -11.7443 97.8158 13.0725 3.7223 105.3502 0.4966 0.2562 0.1149 -53.9292 18.2857 95.5712 -2.4231 39.8320 -8.5599 -3.4339 -8.2431 -1.3426 5.4895 -15.0578 13.0151 -45.8302 -15.7753 77.7578 1.2296 22.3733 -3.0326 -5.2337 10.1043 0.9080 0.4903 -13.2642 8.0500 
0.0000 93.1000 0.0000 69.4212 -28.0471 -6.4150 -71.4271 0.6302 87.7864 71.1843 70.1052 10.9965 6.0536 19.2012 3.6072 -126.2487 33.9144 160.1926 167.3025 75.7466 -139.0224 0.5979 -14.0225 -19.4299 -62.4761 31.0268 -151.1061 16.4935 -2.3986 -97.3587 0.3067 0.0647 -0.0236 -1.7552 5.9341 40.2680 -124.0071 -9.1432 97.5041 14.5102 2.9810 103.2422 0.3381 0.0266 0.0882 -53.0643 19.7133 95.9231 -2.8398 39.8977 -8.1192 -3.9322 -6.7775 -1.2264 4.5046 -13.9351 12.7673 -46.1119 -15.0407 78.2853 1.5541 23.0535 -4.4289 -5.6111 7.0521 1.0220 0.3330 -10.9903 4.7272 
0.0000 93.1000 0.0000 68.9082 -27.1912 -6.6249 -71.5510 0.7937 87.8739 73.5062 69.8810 7.4946 5.6662 18.8544 5.0101 -128.1091 34.5908 158.7171 167.4726 76.5643 -140.0685 0.8751 -14.1408 -19.8058 -63.8868 31.3391 -149.1359 19.2075 -3.7328 -99.0772 -0.0677 -0.6003 -0.3344 -2.3717 6.2126 44.8606 -124.5529 -7.3632 96.3477 15.1105 2.2821 100.0007 -0.0130 0.7793 -0.4574 -51.5258 20.9783 95.8066 -2.4803 40.8801 -5.4353 -4.0824 -6.2011 -0.5379 3.3527 -11.0644 12.3022 -46.2336 -14.9634 77.7158 0.4779 24.6037 -6.2150 -6.6783 5.3281 0.8777 -0.1371 -11.0814 7.1298 
0.0000 93.1000 0.0000 69.3518 -26.7189 -7.0769 -71.4525 0.7664 87.8785 78.7171 70.1847 3.6290 4.7144 18.9499 4.9948 -127.1618 35.0673 157.4162 172.0137 77.6909 -143.8247 0.6962 -13.8517 -20.2848 -64.9814 31.4883 -147.8486 20.3694 -3.6994 -99.2945 -0.2156 -0.2668 -0.2882 -2.3658 5.8135 47.8708 -126.2025 -5.2689 95.8618 17.3080 1.4154 95.7594 -0.2070 0.3731 0.0490 -49.2323 21.6194 97.5297 -2.6153 42.6539 -1.1247 -3.5189 -5.5277 -0.9889 2.4121 -9.3112 13.1013 -45.5825 -13.9234 77.4573 1.6386 26.0048 -4.5906 -6.3076 3.5813 1.0565 -0.4989 -9.3299 6.3161 
0.0000 93.1000 0.0000 69.1422 -25.9964 -6.7193 -71.3324 0.4564 87.7716 81.6307 70.9050 1.7310 3.2676 18.9691 5.9944 -126.2136 35.2276 156.9827 170.2602 77.9031 -141.0041 0.3594 -13.8517 -20.4425 -64.8274 31.7733 -146.0592 22.1297 -4.5594 -100.0384 0.0404 -0.0656 -0.3182 -2.5235 5.6406 48.8393 -127.0586 -3.3928 95.4197 19.2480 0.4069 91.8426 0.0245 0.1224 0.2620 -47.1602 21.4768 98.8287 -2.9195 45.2988 1.1753 -2.6994 -6.9342 -1.3099 1.9112 -9.4088 16.4838 -44.8310 -14.0541 78.0072 2.0963 27.0052 -6.3974 -6.3931 1.4375 1.1463 -0.2074 -8.6738 6.0197 
0.0000 93.1000 0.0000 69.1419 -25.4151 -8.5066 -71.2704 0.4316 87.9093 82.9429 70.9807 -0.0203 3.1695 18.8644 7.1620 -124.3622 35.0266 155.3081 171.2616 78.6165 -141.6583 0.2526 -13.9122 -21.0677 -65.2525 32.4322 -145.6085 23.0240 -4.8923 -100.9297 0.2242 -0.0201 -0.2910 -2.6169 5.8532 50.0585 -128.2725 -0.7700 94.9792 20.2935 -0.8875 88.9812 0.2883 0.0545 0.2440 -45.8160 20.9224 99.9632 -3.0471 46.3527 -1.9906 -2.5041 -10.5755 -1.5171 3.3222 -12.0647 16.4676 -43.9001 -14.3041 77.5219 2.1368 28.1817 -5.5276 -6.8211 0.1221 1.2049 -0.2730 -8.5795 8.1601 
0.0000 93.1000 0.0000 69.1004 -24.9678 -8.0202 -71.1288 0.1018 87.7826 84.7389 70.7491 -0.9655 2.8752 18.2305 7.8495 -124.8476 35.2387 155.1209 175.5842 78.7521 -146.6981 0.1335 -13.8608 -20.9563 -65.3403 32.7482 -144.1105 23.4997 -5.0526 -100.7296 0.2943 -0.2473 -0.0689 -3.1318 6.1616 49.2125 -128.7455 0.7378 96.0410 20.7069 -2.0638 84.6926 0.0985 0.3324 -0.0542 -45.6002 19.0136 100.1475 -4.4103 45.7128 -8.4104 -4.2365 -11.4873 -0.7973 6.2315 -16.5033 16.0912 -44.0674 -15.1118 76.3847 1.7345 28.9985 -4.7755 -8.0569 0.2342 0.9502 0.0119 -9.2598 4.8820 
0.0000 93.1000 0.0000 69.0546 -25.1478 -7.8968 -71.0384 0.0661 87.8431 83.6206 71.0557 -0.5001 3.1964 18.0380 7.9125 -123.5782 35.0400 155.4526 172.0122 78.5987 -140.6039 0.1762 -13.9337 -21.9586 -64.8099 32.8859 -143.0099 23.0833 -5.1574 -100.4678 0.3979 -0.3260 0.0608 -3.2133 6.2109 47.9360 -130.2468 1.0522 96.7543 20.9719 -4.2148 79.6874 -0.3213 0.4682 -0.3990 -45.5094 17.6035 98.7843 -3.9299 45.8797 -14.0297 -4.5236 -12.0469 -0.6196 6.2984 -16.4169 15.8737 -43.6762 -15.0309 76.3218 1.5691 29.9884 -3.9221 -7.5068 -0.3008 0.6808 -0.7870 -7.6572 4.2418 
0.0000 93.1000 0.0000 69.8455 -26.1794 -6.6860 -71.0849 -0.1774 87.9208 84.7196 70.7890 -0.1000 3.4916 18.1980 8.3635 -122.9746 34.8736 154.4441 173.6353 78.5350 -142.9684 0.0290 -14.0219 -22.1983 -63.8954 32.9036 -142.4612 23.4577 -5.1016 -100.5185 0.1622 -0.1824 -0.0319 -3.2806 6.2481 47.9777 -131.2902 1.9767 98.4005 20.5589 -6.1117 75.3561 -0.4286 0.2877 -0.5220 -44.7730 16.7608 97.0267 -4.6894 45.9191 -8.0851 -3.8052 -12.6330 -0.7556 4.9812 -13.6583 12.0412 -42.6200 -14.5405 76.4032 1.6840 32.3345 -2.0265 -6.8855 -0.8695 0.5434 -0.3861 -8.4200 1.9851 
0.0000 93.1000 0.0000 70.2207 -26.9985 -7.0820 -71.2026 0.3289 88.1352 86.0202 71.0295 -0.6127 3.2297 18.1787 8.5416 -121.1393 33.9087 153.2232 175.3427 78.2166 -143.3092 0.6728 -14.4400 -21.8692 -63.7366 32.2738 -141.7490 24.1786 -5.1740 -100.6391 0.1393 -0.9247 -0.1784 -3.5216 6.5734 48.1638 -132.2035 3.6872 100.0431 20.2789 -7.0584 72.0156 -0.6731 1.1878 -0.5308 -44.9223 16.6888 96.7076 -3.7391 46.5318 -7.2217 -2.4503 -14.3321 -0.4426 4.2071 -11.2965 10.7079 -42.1168 -14.5794 75.1642 2.2723 33.2504 -0.1562 -6.9940 -2.0969 0.3850 -0.7408 -8.3301 2.3022 
0.0000 93.1000 0.0000 69.9148 -27.7914 -7.0517 -71.0991 -2.5765 88.0564 85.1224 71.2601 0.6181 2.5817 18.3472 10.0431 -121.2634 33.7101 152.9769 175.7486 77.7745 -146.9240 -2.6375 -14.2002 -21.7582 -63.3244 31.5284 -142.3354 23.9090 -5.3439 -99.6519 -0.1016 3.4683 0.7928 -2.3260 5.8469 47.5547 -133.7454 3.2639 101.0281 19.9315 -8.1218 69.1491 0.8830 -3.9031 2.0508 -45.4037 16.2263 98.1774 -3.3566 46.8342 -7.2410 -2.5963 -14.9092 -3.6676 2.7904 -11.5342 9.6319 -41.8879 -15.0133 74.9110 0.7866 35.2195 0.9770 -8.8130 -1.2815 1.0931 1.5207 -9.9611 1.4337 
0.0000 93.1000 0.0000 71.2240 -28.0194 -6.0393 -70.7638 2.1555 87.5142 84.6922 71.7696 -0.6768 4.4630 19.0032 9.9510 -120.3204 33.5545 150.3379 -176.3097 78.9029 -152.3207 2.1884 -13.7875 -21.1919 -62.4761 30.9902 -143.6393 24.2111 -3.8901 -98.4554 -0.0948 -2.6863 -1.0062 -3.3495 6.7314 48.1667 -135.0964 3.2741 102.1266 17.5597 -8.0473 66.4173 -0.6572 3.2784 -1.9498 -44.6440 17.7398 96.7730 -4.3331 49.4081 -5.4928 -1.9430 -15.7708 0.0503 4.9530 -10.8312 9.2934 -41.1586 -15.0366 74.7427 1.5038 36.4897 1.7099 -6.6170 -2.2724 0.9377 -0.8253 -11.1398 -0.4859 
